<svg version="1.1" id="Layer_1" xmlns="http://www.w3.org/2000/svg" xmlns:xlink="http://www.w3.org/1999/xlink" x="0px" y="0px"
	 width="100%" viewBox="0 0 1000 1000" enable-background="new 0 0 1000 1000" xml:space="preserve">
<path fill="#FFFFFF" opacity="1.000000" stroke="none" 
	d="
M558.000000,1001.000000 
	C372.000000,1001.000000 186.500000,1001.000000 1.000000,1001.000000 
	C1.000000,667.666687 1.000000,334.333344 1.000000,1.000000 
	C334.333344,1.000000 667.666687,1.000000 1001.000000,1.000000 
	C1001.000000,334.333344 1001.000000,667.666687 1001.000000,1001.000000 
	C853.500000,1001.000000 706.000000,1001.000000 558.000000,1001.000000 
M171.921036,624.921448 
	C182.281158,624.928894 192.641296,624.936340 203.926147,625.109619 
	C228.951630,625.053711 253.977112,624.997803 279.927582,625.104797 
	C315.258087,625.124451 350.588715,625.189209 385.919006,625.108765 
	C390.510895,625.098328 395.185120,624.760803 399.679138,623.863464 
	C446.692627,614.475647 484.000061,590.293518 510.670074,550.258484 
	C522.834839,531.997681 529.733643,511.332825 537.037598,490.866486 
	C543.460327,472.869720 549.517700,454.710510 556.777893,437.051270 
	C572.738281,398.230072 599.178467,368.150543 635.022888,346.365540 
	C637.439514,344.896790 638.507690,343.384552 638.487122,340.479095 
	C638.390381,326.815857 638.598999,313.150757 638.564087,299.486664 
	C638.537292,289.008026 638.309998,278.529907 638.495667,267.157593 
	C638.535278,265.327271 638.609375,263.496979 638.609375,261.666656 
	C638.609497,232.199509 638.689697,202.731842 638.515991,173.265686 
	C638.482178,167.530991 637.452271,161.802200 637.035583,155.297974 
	C635.686707,147.470062 631.162415,141.359909 626.002319,134.883209 
	C619.597534,128.759506 612.198486,124.269173 603.238403,123.881516 
	C590.179749,123.316528 577.090210,123.465088 563.088013,123.136429 
	C519.589172,123.121346 476.090088,123.035095 432.591553,123.150513 
	C423.765015,123.173927 415.541779,125.719078 408.345093,131.124512 
	C396.684692,139.882675 391.310638,151.798721 391.264862,166.091049 
	C391.134064,206.923294 391.207306,247.756195 391.226562,288.588837 
	C391.227417,290.404602 391.486786,292.220215 391.354675,294.926849 
	C391.309479,313.506012 391.228149,332.085236 391.239624,350.664368 
	C391.243378,356.785889 391.487030,362.907288 391.352173,369.904816 
	C391.224884,372.498474 391.097565,375.092133 390.943726,378.226898 
	C388.627960,378.226898 386.680511,378.211700 384.733429,378.229340 
	C370.836395,378.355286 356.939453,378.487915 342.136902,378.321411 
	C288.523071,378.288391 234.909271,378.251038 181.295456,378.224152 
	C153.442444,378.210175 136.108871,395.491791 136.098221,423.310028 
	C136.078278,475.426849 136.075211,527.543640 136.092972,579.660461 
	C136.093582,581.462769 136.392548,583.264893 136.581329,585.958191 
	C137.657516,590.705750 138.733704,595.453247 139.959183,600.890808 
	C140.961197,602.778809 141.791946,604.784302 142.993546,606.535339 
	C149.802292,616.457336 158.899368,622.916870 171.921036,624.921448 
M655.926697,625.121338 
	C666.285156,625.062744 676.643616,625.004150 687.928162,625.101624 
	C704.286499,625.049988 720.644836,624.998291 737.929199,625.102417 
	C758.287170,625.049622 778.645142,624.996826 799.928650,625.102905 
	C817.396729,625.121643 834.873474,624.803162 852.330688,625.248230 
	C872.118286,625.752747 892.640503,609.606445 893.390259,585.791809 
	C893.583679,579.646240 893.571045,573.491577 893.533264,567.341797 
	C893.458801,555.224915 893.300537,543.108459 893.500244,530.115479 
	C893.540161,521.988892 893.655518,513.861816 893.602661,505.735870 
	C893.520874,493.153595 893.324280,480.572052 893.499451,467.160309 
	C893.543152,459.041412 893.665222,450.921997 893.608215,442.803802 
	C893.552490,434.866455 893.314209,426.930328 893.330872,418.116211 
	C892.972046,408.134155 889.776123,399.300812 882.543518,391.402435 
	C876.999573,385.966400 870.881958,381.526276 862.209290,379.995728 
	C860.455627,379.575165 858.704834,378.805695 856.947876,378.791504 
	C846.650757,378.708130 836.352173,378.801270 825.324036,378.479065 
	C803.893127,378.599945 782.462158,378.720825 760.368103,378.478088 
	C744.245056,378.603668 728.122009,378.729248 711.113953,378.707214 
	C688.493958,378.579590 665.873657,378.358612 643.254517,378.445465 
	C640.506104,378.455994 637.287659,379.486420 635.093750,381.124603 
	C616.163330,395.260284 600.324280,412.445099 590.357239,433.858490 
	C581.388855,453.126282 574.484070,473.358917 566.775635,493.207397 
	C560.354004,509.742371 554.086975,526.337402 547.215698,543.338745 
	C515.175659,607.837646 462.368683,643.404602 391.958069,654.614685 
	C391.858337,655.457581 391.679565,656.266785 391.678955,657.076111 
	C391.663422,677.230652 391.646698,697.385193 391.675201,717.539734 
	C391.689087,727.356873 391.793549,737.173828 391.707947,747.920288 
	C391.755096,769.278015 391.802277,790.635681 391.695251,812.902527 
	C392.199341,825.602417 392.703430,838.302246 393.080658,851.725220 
	C396.702576,861.041382 402.005981,869.004272 411.421967,874.542419 
	C414.689697,876.032532 417.906433,878.673462 421.233673,878.820923 
	C439.138672,879.614441 457.071167,879.788086 475.816925,880.480591 
	C491.087433,880.527283 506.358002,880.627808 521.628357,880.597595 
	C529.082336,880.582886 536.535828,880.324646 544.882324,880.482422 
	C562.025269,880.521118 579.175537,880.893127 596.309387,880.517578 
	C620.008728,879.998169 635.788635,865.313110 638.117310,841.794678 
	C638.851318,834.380859 638.543213,826.852905 638.523010,819.377747 
	C638.491150,807.582153 638.299622,795.786926 638.495728,783.148315 
	C638.518860,778.836914 638.584290,774.525269 638.557800,770.214172 
	C638.446716,752.141418 638.308105,734.068909 638.510071,715.121826 
	C638.400879,692.410950 638.291687,669.700134 638.511475,646.115417 
	C638.511475,639.332092 638.511475,632.548767 638.511475,625.037231 
	C643.455383,625.037231 647.732666,625.037231 652.357056,625.546509 
	C653.235352,625.374573 654.113647,625.202637 655.926697,625.121338 
z"/>
<path fill="#306CD7" opacity="1.000000" stroke="none" 
	d="
M638.171875,268.051544 
	C638.309998,278.529907 638.537292,289.008026 638.564087,299.486664 
	C638.598999,313.150757 638.390381,326.815857 638.487122,340.479095 
	C638.507690,343.384552 637.439514,344.896790 635.022888,346.365540 
	C599.178467,368.150543 572.738281,398.230072 556.777893,437.051270 
	C549.517700,454.710510 543.460327,472.869720 537.037598,490.866486 
	C529.733643,511.332825 522.834839,531.997681 510.670074,550.258484 
	C484.000061,590.293518 446.692627,614.475647 399.679138,623.863464 
	C395.185120,624.760803 390.510895,625.098328 385.919006,625.108765 
	C350.588715,625.189209 315.258087,625.124451 279.465240,624.631714 
	C279.709991,622.823425 280.141602,621.197021 281.181366,620.213440 
	C283.367889,618.144897 286.019684,616.569275 288.214233,614.507874 
	C291.570221,611.355469 294.635376,607.895752 297.941437,604.687561 
	C304.546753,598.277771 311.351166,592.069214 317.850159,585.554932 
	C324.349060,579.040710 330.489044,572.169373 336.954834,565.620972 
	C340.645477,561.883057 344.738770,558.546326 348.528412,554.901794 
	C351.970154,551.591736 355.263611,548.126343 358.591919,544.699707 
	C365.120789,537.978027 371.534729,531.141663 378.171417,524.528687 
	C384.690582,518.032959 391.540405,511.868225 398.036346,505.350189 
	C404.532043,498.832397 410.644806,491.932465 417.154602,485.429413 
	C423.664398,478.926361 430.603088,472.851776 437.092224,466.329163 
	C446.248505,457.125580 455.102234,447.621674 464.212250,438.371216 
	C468.015167,434.509674 472.201202,431.028503 476.108185,427.265472 
	C479.667633,423.837158 483.113464,420.289032 486.558990,416.744781 
	C493.090790,410.025818 499.489105,403.174011 506.125000,396.560150 
	C512.643005,390.063751 519.502686,383.909393 525.999573,377.392853 
	C532.496521,370.876404 538.604797,363.972107 545.114014,357.468597 
	C551.623230,350.964996 558.562866,344.891418 565.052246,338.369049 
	C574.208801,329.165894 583.100037,319.699127 592.156616,310.395691 
	C595.487366,306.974091 598.937073,303.666260 602.384766,300.361115 
	C606.301758,296.606079 610.382812,293.016815 614.203369,289.167725 
	C620.335266,282.989929 626.206238,276.549744 632.435181,270.474396 
	C633.818848,269.124847 636.232544,268.831299 638.171875,268.051544 
z"/>
<path fill="#689DE3" opacity="1.000000" stroke="none" 
	d="
M626.291809,135.437073 
	C631.162415,141.359909 635.686707,147.470062 636.647156,155.812149 
	C615.449463,168.203354 595.618713,181.409378 577.270874,196.955048 
	C556.875122,214.235825 538.421753,233.278229 522.348450,254.557404 
	C500.542938,283.425232 483.282623,315.086670 466.478912,347.017426 
	C450.298035,377.764709 434.377167,408.669159 417.320496,438.928711 
	C403.997650,462.564331 387.913849,484.402649 368.181458,503.294098 
	C361.938477,509.271057 356.010040,515.655396 349.275757,521.022827 
	C337.755157,530.205139 326.300232,539.704590 313.744537,547.295837 
	C297.027740,557.402832 279.283539,565.810486 261.644958,574.960449 
	C260.540863,575.317993 259.772491,575.663147 258.702545,576.114807 
	C257.600525,576.490295 256.800079,576.759277 255.630707,577.058960 
	C238.508392,582.078369 221.755020,587.067017 204.595245,592.046875 
	C188.191528,594.039856 172.193100,596.032898 156.197479,598.048157 
	C150.731308,598.736816 145.272217,599.481628 139.809891,600.200806 
	C138.733704,595.453247 137.657516,590.705750 136.976624,585.501221 
	C139.553467,584.289124 141.132553,588.964172 143.816269,585.501831 
	C146.520889,582.012390 149.660294,578.829834 152.823990,575.732178 
	C162.102737,566.646790 171.612076,557.794434 180.797150,548.616699 
	C189.982300,539.438965 198.858887,529.953003 207.925018,520.655212 
	C211.374664,517.117493 214.951462,513.702271 218.513687,510.276337 
	C222.425888,506.513855 226.500183,502.913635 230.303558,499.045746 
	C236.757629,492.482086 242.935471,485.644531 249.451035,479.144257 
	C255.966492,472.644104 262.898560,466.560333 269.386902,460.034485 
	C278.542175,450.826324 287.432922,441.355652 296.488281,432.047394 
	C299.702454,428.743408 303.039642,425.557068 306.370728,422.369293 
	C310.291748,418.617004 314.387939,415.040344 318.192047,411.174805 
	C324.648682,404.613892 330.446014,397.298706 337.471436,391.441132 
	C341.953125,387.704407 343.521606,383.913635 343.042480,378.618408 
	C356.939453,378.487915 370.836395,378.355286 384.733429,378.229340 
	C386.680511,378.211700 388.627960,378.226898 390.943726,378.226898 
	C391.097565,375.092133 391.224884,372.498474 391.798950,369.445770 
	C397.085114,364.571503 402.011932,360.247742 406.745331,355.721680 
	C416.025787,346.847656 425.309418,337.971802 434.385254,328.890350 
	C443.932220,319.337463 453.132202,309.437866 462.679321,299.885132 
	C471.755310,290.803833 481.201782,282.092621 490.270996,273.004791 
	C501.187683,262.065643 511.823151,250.846451 522.681946,239.848816 
	C533.583008,228.808289 544.608948,217.891129 555.580139,206.919907 
	C574.734192,187.765869 593.912170,168.635742 613.024597,149.440216 
	C617.559998,144.885040 621.875305,140.110657 626.291809,135.437073 
z"/>
<path fill="#3477D9" opacity="1.000000" stroke="none" 
	d="
M255.999664,577.028198 
	C256.800079,576.759277 257.600525,576.490295 258.903748,576.369629 
	C260.264557,575.994690 261.122620,575.471436 261.980682,574.948181 
	C279.283539,565.810486 297.027740,557.402832 313.744537,547.295837 
	C326.300232,539.704590 337.755157,530.205139 349.275757,521.022827 
	C356.010040,515.655396 361.938477,509.271057 368.181458,503.294098 
	C387.913849,484.402649 403.997650,462.564331 417.320496,438.928711 
	C434.377167,408.669159 450.298035,377.764709 466.478912,347.017426 
	C483.282623,315.086670 500.542938,283.425232 522.348450,254.557404 
	C538.421753,233.278229 556.875122,214.235825 577.270874,196.955048 
	C595.618713,181.409378 615.449463,168.203354 636.570312,156.198502 
	C637.452271,161.802200 638.482178,167.530991 638.515991,173.265686 
	C638.689697,202.731842 638.609497,232.199509 638.609375,261.666656 
	C638.609375,263.496979 638.535278,265.327271 638.333801,267.604553 
	C636.232544,268.831299 633.818848,269.124847 632.435181,270.474396 
	C626.206238,276.549744 620.335266,282.989929 614.203369,289.167725 
	C610.382812,293.016815 606.301758,296.606079 602.384766,300.361115 
	C598.937073,303.666260 595.487366,306.974091 592.156616,310.395691 
	C583.100037,319.699127 574.208801,329.165894 565.052246,338.369049 
	C558.562866,344.891418 551.623230,350.964996 545.114014,357.468597 
	C538.604797,363.972107 532.496521,370.876404 525.999573,377.392853 
	C519.502686,383.909393 512.643005,390.063751 506.125000,396.560150 
	C499.489105,403.174011 493.090790,410.025818 486.558990,416.744781 
	C483.113464,420.289032 479.667633,423.837158 476.108185,427.265472 
	C472.201202,431.028503 468.015167,434.509674 464.212250,438.371216 
	C455.102234,447.621674 446.248505,457.125580 437.092224,466.329163 
	C430.603088,472.851776 423.664398,478.926361 417.154602,485.429413 
	C410.644806,491.932465 404.532043,498.832397 398.036346,505.350189 
	C391.540405,511.868225 384.690582,518.032959 378.171417,524.528687 
	C371.534729,531.141663 365.120789,537.978027 358.591919,544.699707 
	C355.263611,548.126343 351.970154,551.591736 348.528412,554.901794 
	C344.738770,558.546326 340.645477,561.883057 336.954834,565.620972 
	C330.489044,572.169373 324.349060,579.040710 317.850159,585.554932 
	C311.351166,592.069214 304.546753,598.277771 297.941437,604.687561 
	C294.635376,607.895752 291.570221,611.355469 288.214233,614.507874 
	C286.019684,616.569275 283.367889,618.144897 281.181366,620.213440 
	C280.141602,621.197021 279.709991,622.823425 279.002747,624.550293 
	C253.977112,624.997803 228.951630,625.053711 203.499680,624.686218 
	C203.381348,623.687439 203.573761,622.997070 204.014633,622.553650 
	C213.017487,613.497803 221.992691,604.412598 231.137238,595.501404 
	C232.447433,594.224609 234.532135,593.526794 236.383926,593.070129 
	C239.485962,592.305298 241.979294,591.394653 242.121613,587.496765 
	C242.161041,586.416504 243.856842,584.360413 244.294052,584.486145 
	C251.139221,586.454346 252.917038,580.747498 255.999664,577.028198 
z"/>
<path fill="#43A2DE" opacity="1.000000" stroke="none" 
	d="
M761.031250,378.841705 
	C782.462158,378.720825 803.893127,378.599945 825.669617,379.037811 
	C825.883118,380.242828 825.974487,381.111481 825.585632,381.502197 
	C819.076782,388.042725 812.490601,394.506104 805.957031,401.022156 
	C798.603882,408.355499 791.310425,415.748840 783.945435,423.070160 
	C777.764221,429.214813 771.490295,435.266113 765.306946,441.408569 
	C758.281555,448.387573 751.299866,455.410767 744.320068,462.435455 
	C738.177795,468.617096 732.104248,474.867493 725.927429,481.014343 
	C718.911316,487.996490 711.790527,494.873383 704.759094,501.840393 
	C698.105225,508.433228 691.486694,515.062317 684.892090,521.714417 
	C677.922668,528.744751 671.017151,535.838501 664.051025,542.872131 
	C658.032288,548.949219 651.992920,555.006409 645.916687,561.025940 
	C638.884583,567.992554 631.779358,574.885437 624.748169,581.853088 
	C618.094604,588.446411 611.494385,595.093445 604.873657,601.719849 
	C598.106079,608.493164 591.343689,615.271606 584.575989,622.044739 
	C578.072388,628.553589 571.560974,635.054626 565.059998,641.566101 
	C558.178589,648.458618 551.285278,655.339417 544.434875,662.262695 
	C538.304199,668.458557 532.283569,674.764282 526.107422,680.914062 
	C519.095337,687.896179 511.896942,694.691589 504.905121,701.693604 
	C498.627502,707.980286 492.603546,714.520569 486.315460,720.796387 
	C479.314056,727.784058 472.059875,734.518677 465.066376,741.513977 
	C458.784271,747.797791 452.801208,754.380798 446.512512,760.657715 
	C439.630310,767.526978 432.426697,774.075562 425.584473,780.983093 
	C416.546936,790.106934 407.822296,799.541992 398.723236,808.602417 
	C397.007568,810.310852 394.169556,810.892090 391.849457,811.993408 
	C391.802277,790.635681 391.755096,769.278015 392.167053,747.454529 
	C394.016266,746.495911 395.803619,746.392761 396.731598,745.446594 
	C402.516785,739.548645 408.027405,733.382019 413.788696,727.459717 
	C419.975830,721.099670 426.343018,714.914917 432.623596,708.645630 
	C439.631775,701.650146 446.649628,694.664185 453.628326,687.639404 
	C459.770203,681.457031 465.841919,675.204956 471.984650,669.023499 
	C479.304352,661.657715 486.649811,654.317383 494.015961,646.998047 
	C500.197571,640.855652 506.444519,634.779053 512.626709,628.637207 
	C519.651367,621.658386 526.654297,614.657471 533.632996,607.632751 
	C539.774780,601.450500 545.848938,595.201050 551.991516,589.019531 
	C559.310974,581.653625 566.664490,574.321533 574.016357,566.987915 
	C580.071411,560.947876 586.135681,554.916931 592.214172,548.900391 
	C599.250305,541.935913 606.325928,535.011353 613.348206,528.032959 
	C619.874329,521.547485 626.360168,515.021362 632.850098,508.499481 
	C639.834778,501.480438 646.789185,494.431244 653.783569,487.421936 
	C660.051819,481.140320 666.362854,474.901489 672.643311,468.632111 
	C679.651367,461.636505 686.662964,454.644287 693.641846,447.619629 
	C699.783691,441.437531 705.836304,435.166260 712.012451,429.018951 
	C719.026855,422.037384 726.162048,415.177246 733.194275,408.213440 
	C739.849426,401.622986 746.515259,395.040039 753.022949,388.305450 
	C755.888245,385.340149 758.373413,382.007538 761.031250,378.841705 
z"/>
<path fill="#6CA7E4" opacity="1.000000" stroke="none" 
	d="
M342.589691,378.469910 
	C343.521606,383.913635 341.953125,387.704407 337.471436,391.441132 
	C330.446014,397.298706 324.648682,404.613892 318.192047,411.174805 
	C314.387939,415.040344 310.291748,418.617004 306.370728,422.369293 
	C303.039642,425.557068 299.702454,428.743408 296.488281,432.047394 
	C287.432922,441.355652 278.542175,450.826324 269.386902,460.034485 
	C262.898560,466.560333 255.966492,472.644104 249.451035,479.144257 
	C242.935471,485.644531 236.757629,492.482086 230.303558,499.045746 
	C226.500183,502.913635 222.425888,506.513855 218.513687,510.276337 
	C214.951462,513.702271 211.374664,517.117493 207.925018,520.655212 
	C198.858887,529.953003 189.982300,539.438965 180.797150,548.616699 
	C171.612076,557.794434 162.102737,566.646790 152.823990,575.732178 
	C149.660294,578.829834 146.520889,582.012390 143.816269,585.501831 
	C141.132553,588.964172 139.553467,584.289124 136.962189,585.055664 
	C136.392548,583.264893 136.093582,581.462769 136.092972,579.660461 
	C136.075211,527.543640 136.078278,475.426849 136.098221,423.310028 
	C136.108871,395.491791 153.442444,378.210175 181.295456,378.224152 
	C234.909271,378.251038 288.523071,378.288391 342.589691,378.469910 
z"/>
<path fill="#409ADD" opacity="1.000000" stroke="none" 
	d="
M391.772339,812.447998 
	C394.169556,810.892090 397.007568,810.310852 398.723236,808.602417 
	C407.822296,799.541992 416.546936,790.106934 425.584473,780.983093 
	C432.426697,774.075562 439.630310,767.526978 446.512512,760.657715 
	C452.801208,754.380798 458.784271,747.797791 465.066376,741.513977 
	C472.059875,734.518677 479.314056,727.784058 486.315460,720.796387 
	C492.603546,714.520569 498.627502,707.980286 504.905121,701.693604 
	C511.896942,694.691589 519.095337,687.896179 526.107422,680.914062 
	C532.283569,674.764282 538.304199,668.458557 544.434875,662.262695 
	C551.285278,655.339417 558.178589,648.458618 565.059998,641.566101 
	C571.560974,635.054626 578.072388,628.553589 584.575989,622.044739 
	C591.343689,615.271606 598.106079,608.493164 604.873657,601.719849 
	C611.494385,595.093445 618.094604,588.446411 624.748169,581.853088 
	C631.779358,574.885437 638.884583,567.992554 645.916687,561.025940 
	C651.992920,555.006409 658.032288,548.949219 664.051025,542.872131 
	C671.017151,535.838501 677.922668,528.744751 684.892090,521.714417 
	C691.486694,515.062317 698.105225,508.433228 704.759094,501.840393 
	C711.790527,494.873383 718.911316,487.996490 725.927429,481.014343 
	C732.104248,474.867493 738.177795,468.617096 744.320068,462.435455 
	C751.299866,455.410767 758.281555,448.387573 765.306946,441.408569 
	C771.490295,435.266113 777.764221,429.214813 783.945435,423.070160 
	C791.310425,415.748840 798.603882,408.355499 805.957031,401.022156 
	C812.490601,394.506104 819.076782,388.042725 825.585632,381.502197 
	C825.974487,381.111481 825.883118,380.242828 826.034668,379.215729 
	C836.352173,378.801270 846.650757,378.708130 856.947876,378.791504 
	C858.704834,378.805695 860.455627,379.575165 862.599976,380.425659 
	C861.575073,382.822449 860.400391,385.030090 858.709534,386.721832 
	C709.297485,536.207886 559.841614,685.650146 410.417053,835.123718 
	C406.078369,839.463867 402.130585,844.194214 397.807434,848.550964 
	C396.638153,849.729248 394.760162,850.204285 393.207458,851.002075 
	C392.703430,838.302246 392.199341,825.602417 391.772339,812.447998 
z"/>
<path fill="#46ACDF" opacity="1.000000" stroke="none" 
	d="
M760.699707,378.659912 
	C758.373413,382.007538 755.888245,385.340149 753.022949,388.305450 
	C746.515259,395.040039 739.849426,401.622986 733.194275,408.213440 
	C726.162048,415.177246 719.026855,422.037384 712.012451,429.018951 
	C705.836304,435.166260 699.783691,441.437531 693.641846,447.619629 
	C686.662964,454.644287 679.651367,461.636505 672.643311,468.632111 
	C666.362854,474.901489 660.051819,481.140320 653.783569,487.421936 
	C646.789185,494.431244 639.834778,501.480438 632.850098,508.499481 
	C626.360168,515.021362 619.874329,521.547485 613.348206,528.032959 
	C606.325928,535.011353 599.250305,541.935913 592.214172,548.900391 
	C586.135681,554.916931 580.071411,560.947876 574.016357,566.987915 
	C566.664490,574.321533 559.310974,581.653625 551.991516,589.019531 
	C545.848938,595.201050 539.774780,601.450500 533.632996,607.632751 
	C526.654297,614.657471 519.651367,621.658386 512.626709,628.637207 
	C506.444519,634.779053 500.197571,640.855652 494.015961,646.998047 
	C486.649811,654.317383 479.304352,661.657715 471.984650,669.023499 
	C465.841919,675.204956 459.770203,681.457031 453.628326,687.639404 
	C446.649628,694.664185 439.631775,701.650146 432.623596,708.645630 
	C426.343018,714.914917 419.975830,721.099670 413.788696,727.459717 
	C408.027405,733.382019 402.516785,739.548645 396.731598,745.446594 
	C395.803619,746.392761 394.016266,746.495911 392.241577,746.989868 
	C391.793549,737.173828 391.689087,727.356873 391.675201,717.539734 
	C391.646698,697.385193 391.663422,677.230652 391.678955,657.076111 
	C391.679565,656.266785 391.858337,655.457581 391.958069,654.614685 
	C462.368683,643.404602 515.175659,607.837646 547.871765,543.146606 
	C549.903259,542.181030 551.502075,541.645203 552.618713,540.596191 
	C561.301331,532.439270 569.955017,524.249084 578.489136,515.937195 
	C585.228943,509.372986 591.780762,502.615997 598.426392,495.954834 
	C604.925354,489.440735 611.441406,482.943634 617.942566,476.431732 
	C624.824158,469.538727 631.716980,462.656799 638.567871,455.733337 
	C644.698914,449.537354 650.721375,443.233032 656.897766,437.083038 
	C663.910278,430.100464 671.070862,423.266907 678.111023,416.311829 
	C684.893005,409.611847 691.789490,403.012909 698.285278,396.043030 
	C703.277466,390.686493 709.821533,386.482422 711.998962,378.854858 
	C728.122009,378.729248 744.245056,378.603668 760.699707,378.659912 
z"/>
<path fill="#3E96DD" opacity="1.000000" stroke="none" 
	d="
M393.144043,851.363647 
	C394.760162,850.204285 396.638153,849.729248 397.807434,848.550964 
	C402.130585,844.194214 406.078369,839.463867 410.417053,835.123718 
	C559.841614,685.650146 709.297485,536.207886 858.709534,386.721832 
	C860.400391,385.030090 861.575073,382.822449 862.996338,380.500488 
	C870.881958,381.526276 876.999573,385.966400 882.324646,391.751343 
	C879.119202,395.155121 876.155701,398.232880 873.141418,401.260193 
	C866.539001,407.891052 859.911560,414.497162 853.292664,421.111725 
	C846.526978,427.872986 839.759277,434.632324 832.992371,441.392303 
	C826.489441,447.888580 819.985901,454.384186 813.483276,460.880707 
	C806.599670,467.757843 799.745300,474.664520 792.825317,481.504700 
	C786.631653,487.626892 780.295349,493.605804 774.150818,499.776306 
	C767.177002,506.779633 760.423096,514.002380 753.430725,520.986755 
	C747.150757,527.259460 740.584534,533.245850 734.313843,539.527466 
	C727.333496,546.520081 720.633484,553.792847 713.645569,560.777710 
	C707.366699,567.053772 700.745667,572.988281 694.485718,579.282410 
	C684.967834,588.852234 675.654114,598.624817 666.204712,608.263245 
	C663.327942,611.197632 660.629089,614.514343 657.220032,616.654236 
	C654.427368,618.407104 653.710510,620.279968 653.679565,623.166626 
	C652.931274,623.827148 652.470581,624.432190 652.009888,625.037231 
	C647.732666,625.037231 643.455383,625.037231 638.511475,625.037231 
	C638.511475,632.548767 638.511475,639.332092 638.041016,646.574707 
	C636.707947,647.493896 635.666260,647.776611 635.009888,648.440430 
	C626.665283,656.879395 618.374390,665.371521 610.073547,673.853760 
	C606.509277,677.495911 603.010315,681.203979 599.381714,684.780640 
	C592.464661,691.598755 585.458130,698.325928 578.523560,705.126404 
	C574.310059,709.258545 570.132324,713.428223 565.992676,717.634399 
	C561.946350,721.745728 557.977661,725.933594 553.958252,730.071594 
	C550.519653,733.611755 547.119812,737.192688 543.592346,740.642700 
	C536.768005,747.317200 529.763428,753.810059 523.025696,760.569702 
	C516.643066,766.973145 510.576385,773.690369 504.243774,780.144958 
	C496.645508,787.889587 488.917175,795.506592 481.236542,803.170166 
	C478.088593,806.311157 474.944366,809.456665 471.752228,812.552429 
	C464.781158,819.312988 457.683228,825.945740 450.820190,832.813660 
	C444.429565,839.208862 438.295288,845.859619 432.013245,852.364136 
	C425.030426,859.594116 418.008118,866.786011 411.003052,873.994507 
	C402.005981,869.004272 396.702576,861.041382 393.144043,851.363647 
z"/>
<path fill="#6AA2E3" opacity="1.000000" stroke="none" 
	d="
M626.147095,135.160141 
	C621.875305,140.110657 617.559998,144.885040 613.024597,149.440216 
	C593.912170,168.635742 574.734192,187.765869 555.580139,206.919907 
	C544.608948,217.891129 533.583008,228.808289 522.681946,239.848816 
	C511.823151,250.846451 501.187683,262.065643 490.270996,273.004791 
	C481.201782,282.092621 471.755310,290.803833 462.679321,299.885132 
	C453.132202,309.437866 443.932220,319.337463 434.385254,328.890350 
	C425.309418,337.971802 416.025787,346.847656 406.745331,355.721680 
	C402.011932,360.247742 397.085114,364.571503 391.933380,369.007751 
	C391.487030,362.907288 391.243378,356.785889 391.239624,350.664368 
	C391.228149,332.085236 391.309479,313.506012 391.813965,294.466980 
	C393.342468,293.391449 394.585907,292.957733 395.451172,292.129120 
	C399.496185,288.255249 403.400360,284.234711 407.425446,280.339539 
	C411.320770,276.569885 415.418518,273.003754 419.219971,269.144012 
	C425.787933,262.475342 432.080658,255.533691 438.702545,248.920502 
	C445.324585,242.307129 452.328888,236.076263 458.943665,229.455933 
	C465.558411,222.835709 471.774963,215.817459 478.393616,209.201248 
	C485.012268,202.585022 492.037964,196.375824 498.654144,189.757217 
	C505.270416,183.138535 511.473755,176.107040 518.091919,169.490341 
	C524.710022,162.873627 531.665649,156.595871 538.386169,150.079636 
	C546.632446,142.084091 554.805664,134.012894 562.947754,125.911293 
	C563.559937,125.302147 563.670166,124.188538 564.013794,123.309433 
	C577.090210,123.465088 590.179749,123.316528 603.238403,123.881516 
	C612.198486,124.269173 619.597534,128.759506 626.147095,135.160141 
z"/>
<path fill="#6CA8E5" opacity="1.000000" stroke="none" 
	d="
M563.550903,123.222931 
	C563.670166,124.188538 563.559937,125.302147 562.947754,125.911293 
	C554.805664,134.012894 546.632446,142.084091 538.386169,150.079636 
	C531.665649,156.595871 524.710022,162.873627 518.091919,169.490341 
	C511.473755,176.107040 505.270416,183.138535 498.654144,189.757217 
	C492.037964,196.375824 485.012268,202.585022 478.393616,209.201248 
	C471.774963,215.817459 465.558411,222.835709 458.943665,229.455933 
	C452.328888,236.076263 445.324585,242.307129 438.702545,248.920502 
	C432.080658,255.533691 425.787933,262.475342 419.219971,269.144012 
	C415.418518,273.003754 411.320770,276.569885 407.425446,280.339539 
	C403.400360,284.234711 399.496185,288.255249 395.451172,292.129120 
	C394.585907,292.957733 393.342468,293.391449 391.949493,294.021484 
	C391.486786,292.220215 391.227417,290.404602 391.226562,288.588837 
	C391.207306,247.756195 391.134064,206.923294 391.264862,166.091049 
	C391.310638,151.798721 396.684692,139.882675 408.345093,131.124512 
	C415.541779,125.719078 423.765015,123.173927 432.591553,123.150513 
	C476.090088,123.035095 519.589172,123.121346 563.550903,123.222931 
z"/>
<path fill="#3C8EDC" opacity="1.000000" stroke="none" 
	d="
M411.212494,874.268433 
	C418.008118,866.786011 425.030426,859.594116 432.013245,852.364136 
	C438.295288,845.859619 444.429565,839.208862 450.820190,832.813660 
	C457.683228,825.945740 464.781158,819.312988 471.752228,812.552429 
	C474.944366,809.456665 478.088593,806.311157 481.236542,803.170166 
	C488.917175,795.506592 496.645508,787.889587 504.243774,780.144958 
	C510.576385,773.690369 516.643066,766.973145 523.025696,760.569702 
	C529.763428,753.810059 536.768005,747.317200 543.592346,740.642700 
	C547.119812,737.192688 550.519653,733.611755 553.958252,730.071594 
	C557.977661,725.933594 561.946350,721.745728 565.992676,717.634399 
	C570.132324,713.428223 574.310059,709.258545 578.523560,705.126404 
	C585.458130,698.325928 592.464661,691.598755 599.381714,684.780640 
	C603.010315,681.203979 606.509277,677.495911 610.073547,673.853760 
	C618.374390,665.371521 626.665283,656.879395 635.009888,648.440430 
	C635.666260,647.776611 636.707947,647.493896 637.876526,647.011658 
	C638.291687,669.700134 638.400879,692.410950 638.034912,715.580811 
	C631.238831,722.030457 624.826721,727.928650 618.618591,734.034119 
	C609.769897,742.736633 601.086914,751.607300 592.304016,760.377014 
	C579.870605,772.791809 567.384583,785.153992 554.969727,797.587219 
	C543.506287,809.067627 532.144958,820.649963 520.668884,832.117615 
	C508.359894,844.417725 495.873810,856.542297 483.678375,868.953125 
	C480.386169,872.303406 477.867737,876.414001 474.994171,880.175659 
	C457.071167,879.788086 439.138672,879.614441 421.233673,878.820923 
	C417.906433,878.673462 414.689697,876.032532 411.212494,874.268433 
z"/>
<path fill="#3B8CDB" opacity="1.000000" stroke="none" 
	d="
M893.156128,418.993713 
	C893.314209,426.930328 893.552490,434.866455 893.608215,442.803802 
	C893.665222,450.921997 893.543152,459.041412 893.020813,467.584198 
	C891.499817,468.665192 890.278992,469.148865 889.444519,470.007935 
	C884.392090,475.209045 879.536621,480.604767 874.407715,485.727600 
	C867.421692,492.705505 860.162598,499.410217 853.183289,506.394653 
	C846.912537,512.669983 840.976440,519.280457 834.686768,525.536072 
	C825.123413,535.047729 815.280396,544.278748 805.745605,553.818359 
	C796.682129,562.886475 787.983459,572.319641 778.904541,581.371765 
	C766.793579,593.447021 754.407532,605.246338 742.296570,617.321533 
	C740.140869,619.470825 738.748230,622.385437 737.003174,624.946655 
	C720.644836,624.998291 704.286499,625.049988 687.501648,624.673828 
	C694.022217,616.391479 700.753479,608.331360 707.981201,600.744263 
	C714.326294,594.083740 721.347351,588.072632 727.849854,581.555176 
	C734.352234,575.037842 740.437195,568.102844 746.965576,561.612976 
	C756.295471,552.337952 765.915466,543.355469 775.311768,534.146362 
	C783.296326,526.320801 791.151611,518.363098 799.039734,510.439606 
	C802.293091,507.171600 805.505676,503.862091 808.695557,500.531952 
	C812.451355,496.611176 816.049561,492.532806 819.917908,488.727997 
	C826.482788,482.270966 833.325684,476.094421 839.828552,469.577240 
	C846.331238,463.060181 852.473938,456.184753 858.942871,449.632812 
	C862.635376,445.893005 866.784363,442.605865 870.508484,438.894836 
	C874.350647,435.066132 877.667114,430.679657 881.698425,427.080292 
	C885.162720,423.987244 889.310547,421.659729 893.156128,418.993713 
z"/>
<path fill="#3883DA" opacity="1.000000" stroke="none" 
	d="
M475.405548,880.328125 
	C477.867737,876.414001 480.386169,872.303406 483.678375,868.953125 
	C495.873810,856.542297 508.359894,844.417725 520.668884,832.117615 
	C532.144958,820.649963 543.506287,809.067627 554.969727,797.587219 
	C567.384583,785.153992 579.870605,772.791809 592.304016,760.377014 
	C601.086914,751.607300 609.769897,742.736633 618.618591,734.034119 
	C624.826721,727.928650 631.238831,722.030457 637.869690,716.018005 
	C638.308105,734.068909 638.446716,752.141418 638.557800,770.214172 
	C638.584290,774.525269 638.518860,778.836914 638.027222,783.592468 
	C632.709900,788.865112 627.795044,793.629517 623.028320,798.537903 
	C616.633728,805.122559 610.497681,811.963318 603.989929,818.431946 
	C594.689514,827.676392 585.124207,836.653748 575.733154,845.807922 
	C572.444702,849.013245 569.367310,852.433960 566.138672,855.702148 
	C561.997681,859.893799 557.641113,863.884949 553.677429,868.235840 
	C550.231445,872.018677 547.202698,876.181702 543.989502,880.176636 
	C536.535828,880.324646 529.082336,880.582886 521.628357,880.597595 
	C506.358002,880.627808 491.087433,880.527283 475.405548,880.328125 
z"/>
<path fill="#48B0E0" opacity="1.000000" stroke="none" 
	d="
M711.556458,378.781036 
	C709.821533,386.482422 703.277466,390.686493 698.285278,396.043030 
	C691.789490,403.012909 684.893005,409.611847 678.111023,416.311829 
	C671.070862,423.266907 663.910278,430.100464 656.897766,437.083038 
	C650.721375,443.233032 644.698914,449.537354 638.567871,455.733337 
	C631.716980,462.656799 624.824158,469.538727 617.942566,476.431732 
	C611.441406,482.943634 604.925354,489.440735 598.426392,495.954834 
	C591.780762,502.615997 585.228943,509.372986 578.489136,515.937195 
	C569.955017,524.249084 561.301331,532.439270 552.618713,540.596191 
	C551.502075,541.645203 549.903259,542.181030 548.139648,542.930176 
	C554.086975,526.337402 560.354004,509.742371 566.775635,493.207397 
	C574.484070,473.358917 581.388855,453.126282 590.357239,433.858490 
	C600.324280,412.445099 616.163330,395.260284 635.093750,381.124603 
	C637.287659,379.486420 640.506104,378.455994 643.254517,378.445465 
	C665.873657,378.358612 688.493958,378.579590 711.556458,378.781036 
z"/>
<path fill="#3883DA" opacity="1.000000" stroke="none" 
	d="
M737.466187,625.024536 
	C738.748230,622.385437 740.140869,619.470825 742.296570,617.321533 
	C754.407532,605.246338 766.793579,593.447021 778.904541,581.371765 
	C787.983459,572.319641 796.682129,562.886475 805.745605,553.818359 
	C815.280396,544.278748 825.123413,535.047729 834.686768,525.536072 
	C840.976440,519.280457 846.912537,512.669983 853.183289,506.394653 
	C860.162598,499.410217 867.421692,492.705505 874.407715,485.727600 
	C879.536621,480.604767 884.392090,475.209045 889.444519,470.007935 
	C890.278992,469.148865 891.499817,468.665192 892.859253,467.999146 
	C893.324280,480.572052 893.520874,493.153595 893.602661,505.735870 
	C893.655518,513.861816 893.540161,521.988892 893.029907,530.575500 
	C885.296082,537.835022 877.933228,544.532227 870.796936,551.462830 
	C863.714478,558.341187 856.869812,565.464233 849.902649,572.461731 
	C843.429504,578.963013 836.944214,585.452332 830.442444,591.924988 
	C823.444519,598.891541 816.317139,605.731873 809.450806,612.825317 
	C805.747437,616.651184 802.471741,620.890991 799.003113,624.944092 
	C778.645142,624.996826 758.287170,625.049622 737.466187,625.024536 
z"/>
<path fill="#3D92DC" opacity="1.000000" stroke="none" 
	d="
M893.243530,418.554962 
	C889.310547,421.659729 885.162720,423.987244 881.698425,427.080292 
	C877.667114,430.679657 874.350647,435.066132 870.508484,438.894836 
	C866.784363,442.605865 862.635376,445.893005 858.942871,449.632812 
	C852.473938,456.184753 846.331238,463.060181 839.828552,469.577240 
	C833.325684,476.094421 826.482788,482.270966 819.917908,488.727997 
	C816.049561,492.532806 812.451355,496.611176 808.695557,500.531952 
	C805.505676,503.862091 802.293091,507.171600 799.039734,510.439606 
	C791.151611,518.363098 783.296326,526.320801 775.311768,534.146362 
	C765.915466,543.355469 756.295471,552.337952 746.965576,561.612976 
	C740.437195,568.102844 734.352234,575.037842 727.849854,581.555176 
	C721.347351,588.072632 714.326294,594.083740 707.981201,600.744263 
	C700.753479,608.331360 694.022217,616.391479 687.038574,624.595825 
	C676.643616,625.004150 666.285156,625.062744 655.401123,624.804688 
	C654.572693,624.028992 654.269897,623.570068 653.967102,623.111145 
	C653.710510,620.279968 654.427368,618.407104 657.220032,616.654236 
	C660.629089,614.514343 663.327942,611.197632 666.204712,608.263245 
	C675.654114,598.624817 684.967834,588.852234 694.485718,579.282410 
	C700.745667,572.988281 707.366699,567.053772 713.645569,560.777710 
	C720.633484,553.792847 727.333496,546.520081 734.313843,539.527466 
	C740.584534,533.245850 747.150757,527.259460 753.430725,520.986755 
	C760.423096,514.002380 767.177002,506.779633 774.150818,499.776306 
	C780.295349,493.605804 786.631653,487.626892 792.825317,481.504700 
	C799.745300,474.664520 806.599670,467.757843 813.483276,460.880707 
	C819.985901,454.384186 826.489441,447.888580 832.992371,441.392303 
	C839.759277,434.632324 846.526978,427.872986 853.292664,421.111725 
	C859.911560,414.497162 866.539001,407.891052 873.141418,401.260193 
	C876.155701,398.232880 879.119202,395.155121 882.433838,392.056885 
	C889.776123,399.300812 892.972046,408.134155 893.243530,418.554962 
z"/>
<path fill="#3579D9" opacity="1.000000" stroke="none" 
	d="
M544.435913,880.329590 
	C547.202698,876.181702 550.231445,872.018677 553.677429,868.235840 
	C557.641113,863.884949 561.997681,859.893799 566.138672,855.702148 
	C569.367310,852.433960 572.444702,849.013245 575.733154,845.807922 
	C585.124207,836.653748 594.689514,827.676392 603.989929,818.431946 
	C610.497681,811.963318 616.633728,805.122559 623.028320,798.537903 
	C627.795044,793.629517 632.709900,788.865112 637.867188,784.014099 
	C638.299622,795.786926 638.491150,807.582153 638.523010,819.377747 
	C638.543213,826.852905 638.851318,834.380859 638.117310,841.794678 
	C635.788635,865.313110 620.008728,879.998169 596.309387,880.517578 
	C579.175537,880.893127 562.025269,880.521118 544.435913,880.329590 
z"/>
<path fill="#3579D9" opacity="1.000000" stroke="none" 
	d="
M799.465881,625.023499 
	C802.471741,620.890991 805.747437,616.651184 809.450806,612.825317 
	C816.317139,605.731873 823.444519,598.891541 830.442444,591.924988 
	C836.944214,585.452332 843.429504,578.963013 849.902649,572.461731 
	C856.869812,565.464233 863.714478,558.341187 870.796936,551.462830 
	C877.933228,544.532227 885.296082,537.835022 892.868286,531.013672 
	C893.300537,543.108459 893.458801,555.224915 893.533264,567.341797 
	C893.571045,573.491577 893.583679,579.646240 893.390259,585.791809 
	C892.640503,609.606445 872.118286,625.752747 852.330688,625.248230 
	C834.873474,624.803162 817.396729,625.121643 799.465881,625.023499 
z"/>
<path fill="#3579D9" opacity="1.000000" stroke="none" 
	d="
M255.630707,577.058960 
	C252.917038,580.747498 251.139221,586.454346 244.294052,584.486145 
	C243.856842,584.360413 242.161041,586.416504 242.121613,587.496765 
	C241.979294,591.394653 239.485962,592.305298 236.383926,593.070129 
	C234.532135,593.526794 232.447433,594.224609 231.137238,595.501404 
	C221.992691,604.412598 213.017487,613.497803 204.014633,622.553650 
	C203.573761,622.997070 203.381348,623.687439 203.037323,624.603271 
	C192.641296,624.936340 182.281158,624.928894 171.470764,624.458557 
	C171.641586,622.871887 172.045975,621.530518 172.919739,620.660461 
	C177.832565,615.768433 182.793137,610.919800 187.866257,606.194641 
	C191.954239,602.387024 196.184616,598.728271 200.437180,595.103638 
	C201.820023,593.924988 203.472504,593.062683 205.001648,592.055664 
	C221.755020,587.067017 238.508392,582.078369 255.630707,577.058960 
z"/>
<path fill="#377EDA" opacity="1.000000" stroke="none" 
	d="
M204.595245,592.046875 
	C203.472504,593.062683 201.820023,593.924988 200.437180,595.103638 
	C196.184616,598.728271 191.954239,602.387024 187.866257,606.194641 
	C182.793137,610.919800 177.832565,615.768433 172.919739,620.660461 
	C172.045975,621.530518 171.641586,622.871887 171.015320,624.342773 
	C158.899368,622.916870 149.802292,616.457336 142.993546,606.535339 
	C141.791946,604.784302 140.961197,602.778809 139.884537,600.545776 
	C145.272217,599.481628 150.731308,598.736816 156.197479,598.048157 
	C172.193100,596.032898 188.191528,594.039856 204.595245,592.046875 
z"/>
<path fill="#CDE1F6" opacity="1.000000" stroke="none" 
	d="
M653.679565,623.166626 
	C654.269897,623.570068 654.572693,624.028992 654.933716,624.759338 
	C654.113647,625.202637 653.235352,625.374573 652.183472,625.291870 
	C652.470581,624.432190 652.931274,623.827148 653.679565,623.166626 
z"/>
<path fill="#3579D9" opacity="1.000000" stroke="none" 
	d="
M261.644958,574.960449 
	C261.122620,575.471436 260.264557,575.994690 259.205322,576.263123 
	C259.772491,575.663147 260.540863,575.317993 261.644958,574.960449 
z"/>
</svg>